<?xml version="1.0" encoding="utf-8"?><svg viewBox="0 0 18 18" xmlns="http://www.w3.org/2000/svg" xmlns:xlink="http://www.w3.org/1999/xlink"><style>:root>svg{display:none}:root>svg:target{display:block}</style><svg fill="none" viewBox="0 0 18 12" id="email-icon" xmlns="http://www.w3.org/2000/svg"><path d="M17.641.18H.36A.359.359 0 000 .54v9.447c0 1.011.823 1.834 1.834 1.834h14.332A1.836 1.836 0 0018 9.986V.54a.359.359 0 00-.359-.359zm-.358 9.806c0 .616-.501 1.117-1.117 1.117H1.834A1.118 1.118 0 01.717 9.986V1.321l8.056 6.595a.358.358 0 00.454 0l6.233-5.092a.359.359 0 00-.453-.555L9 7.175 1.332.897h15.95v9.089z" fill="currentColor"/><path d="M16.52 1.495a.359.359 0 00-.504-.05l-.107.087a.359.359 0 00.453.555L16.47 2a.359.359 0 00.05-.505z" fill="currentColor"/></svg><svg fill="none" viewBox="0 0 18 18" id="lock-icon" xmlns="http://www.w3.org/2000/svg"><path d="M14.333 6.704v-1.87C14.333 2.167 11.941 0 9 0 6.06 0 3.667 2.168 3.667 4.833v1.871a2.412 2.412 0 00-2 2.373v6.514A2.412 2.412 0 004.077 18h9.847a2.412 2.412 0 002.41-2.41V9.076a2.412 2.412 0 00-2-2.372zm-10-1.87C4.333 2.535 6.427.666 9 .666s4.667 1.869 4.667 4.166v1.834H4.333V4.833zM15.667 15.59c0 .961-.782 1.743-1.743 1.743H4.076a1.745 1.745 0 01-1.743-1.743V9.076c0-.96.782-1.743 1.743-1.743h9.848c.96 0 1.743.782 1.743 1.743v6.514z" fill="currentColor"/><path d="M9 9.333c-.735 0-1.333.598-1.333 1.334v2C7.667 13.402 8.265 14 9 14s1.333-.598 1.333-1.333v-2c0-.736-.598-1.334-1.333-1.334zm.667 3.334a.667.667 0 01-1.334 0v-2a.667.667 0 011.334 0v2z" fill="currentColor"/></svg><svg fill="none" viewBox="0 0 18 18" id="map-icon" xmlns="http://www.w3.org/2000/svg"><path d="M9 7.8c1.158 0 2.1-.942 2.1-2.1 0-1.158-.942-2.1-2.1-2.1-1.158 0-2.1.942-2.1 2.1 0 1.158.942 2.1 2.1 2.1zm0-3.6c.827 0 1.5.673 1.5 1.5S9.827 7.2 9 7.2s-1.5-.673-1.5-1.5.673-1.5 1.5-1.5z" fill="currentColor"/><path d="M8.947 16.427l4.602-6.647c1.726-2.301 1.477-6.084-.534-8.095A5.715 5.715 0 008.947 0a5.716 5.716 0 00-4.068 1.685c-2.011 2.01-2.26 5.793-.541 8.086l4.609 6.656zM5.303 2.11A5.12 5.12 0 018.947.6a5.12 5.12 0 013.644 1.51c1.815 1.814 2.038 5.23.472 7.319l-4.116 5.944L4.825 9.42c-1.56-2.08-1.337-5.496.478-7.31z" fill="currentColor"/><path d="M12.635 12.902a.3.3 0 00-.07.596c3.155.371 4.835 1.372 4.835 1.952 0 .814-3.196 1.95-8.4 1.95-5.204 0-8.4-1.136-8.4-1.95 0-.58 1.68-1.58 4.835-1.952a.3.3 0 00-.07-.596C2.206 13.274 0 14.322 0 15.45 0 16.717 3.091 18 9 18s9-1.283 9-2.55c0-1.128-2.206-2.176-5.365-2.548z" fill="currentColor"/></svg><svg fill="none" viewBox="0 0 17 17" id="phone-icon" xmlns="http://www.w3.org/2000/svg"><g clip-path="url(#da)" fill="currentColor"><path d="M16.554 13.115l-3.441-2.295a1.004 1.004 0 00-1.345.218l-1.002 1.289a.428.428 0 01-.55.116l-.19-.105c-.632-.345-1.418-.774-3.003-2.359C5.44 8.394 5.01 7.607 4.664 6.976l-.104-.19a.429.429 0 01.113-.552l1.288-1.002c.412-.323.507-.908.219-1.344L3.885.447A1 1 0 002.538.144L1.1 1.008a2.03 2.03 0 00-.926 1.201c-.518 1.888-.128 5.146 4.671 9.946C8.663 15.973 11.505 17 13.46 17c.45.002.897-.056 1.332-.174a2.027 2.027 0 001.2-.925l.866-1.438a1 1 0 00-.303-1.347zm-.185 1.056l-.864 1.44c-.19.325-.5.566-.864.669-1.742.478-4.787.082-9.395-4.526S.242 4.102.72 2.36c.104-.364.344-.674.671-.865L2.83.63a.433.433 0 01.584.13l1.247 1.872 1.046 1.57a.436.436 0 01-.095.583L4.324 5.788a.991.991 0 00-.262 1.273l.102.185c.362.665.812 1.49 2.456 3.134 1.643 1.643 2.469 2.093 3.132 2.455l.187.102a.99.99 0 001.272-.262l1.002-1.288a.436.436 0 01.584-.095l3.44 2.295a.433.433 0 01.132.584zM9.633 2.835a4.821 4.821 0 014.816 4.816.283.283 0 10.566 0 5.388 5.388 0 00-5.382-5.383.283.283 0 100 .567z"/><path d="M9.633 4.535a3.12 3.12 0 013.116 3.116.283.283 0 10.566 0 3.687 3.687 0 00-3.682-3.683.283.283 0 100 .567z"/><path d="M9.633 6.234a1.418 1.418 0 011.416 1.417.283.283 0 00.567 0 1.985 1.985 0 00-1.983-1.983.283.283 0 100 .566z"/></g><defs><clipPath id="da"><path fill="#fff" d="M0 0h17v17H0z"/></clipPath></defs></svg><svg fill="none" viewBox="0 0 15 15" id="search-icon" xmlns="http://www.w3.org/2000/svg"><path d="M9.92 9.453l-.326.352.34.34 4.287 4.296a.044.044 0 01.011.03c0 .011-.004.015-.005.017l-.008.008-.003.003h-.003l-.002.001a.05.05 0 01-.016-.012l-4.337-4.337-.307-.306-.346.259a5.304 5.304 0 01-3.194 1.062A5.34 5.34 0 01.678 5.833 5.34 5.34 0 016.011.5a5.34 5.34 0 015.333 5.333 5.323 5.323 0 01-1.424 3.62zM6.01.556A5.282 5.282 0 00.734 5.833a5.276 5.276 0 1010.554 0A5.281 5.281 0 006.011.556z" stroke="currentColor"/></svg></svg>