<svg width="26" height="30" fill="none" xmlns="http://www.w3.org/2000/svg"><path d="M21.026 22.166 16.218 20.2a1.4 1.4 0 0 1-.874-1.302v-.336a8.676 8.676 0 0 0 3.168-4.03h.113a2.346 2.346 0 0 0 2.344-2.344c0-.292-.06-.57-.16-.828l.2-.193c.443-.417.724-.957.792-1.094.596-.942.736-2.08.384-3.13a3.77 3.77 0 0 0-1.962-2.2 3.723 3.723 0 0 0-1.552-2.487 3.92 3.92 0 0 0-2.915-.656A3.898 3.898 0 0 0 13 .469a3.9 3.9 0 0 0-2.756 1.13 3.93 3.93 0 0 0-2.915.656 3.724 3.724 0 0 0-1.552 2.488 3.775 3.775 0 0 0-1.962 2.2 3.657 3.657 0 0 0 .384 3.13c.066.134.338.656.766 1.07l.237.174a2.34 2.34 0 0 0-.17.87 2.346 2.346 0 0 0 2.343 2.344h.113a8.674 8.674 0 0 0 3.168 4.03v.336a1.4 1.4 0 0 1-.873 1.301l-4.81 1.968a7.425 7.425 0 0 0-4.63 6.896v.47h25.313v-.47a7.424 7.424 0 0 0-4.63-6.896Zm-3.848 1.536-1.905 1.43 1.263-3.79.266.11.376 2.25Zm-7.981-2.25.267-.11 1.263 3.79-1.906-1.43.376-2.25Zm1.578 3.824 1.106 3.318h-.093l-1.935-1.935.922-1.383Zm-.447-4.304c.105-.055.204-.115.298-.183L13 23.163l2.374-2.374c.094.068.193.128.298.183l-2.54 7.622h-.263l-2.54-7.622Zm4.897 4.304.922 1.383-1.935 1.935h-.093l1.106-3.318Zm2.84-12.69a7.53 7.53 0 0 1-.136.677.925.925 0 0 1-.71.33h-1.944a.933.933 0 0 1-.838-.517l-.21-.42h-2.454l-.21.42a.933.933 0 0 1-.838.518H8.78a.925.925 0 0 1-.71-.33 7.814 7.814 0 0 1-.227-1.849v-1.103h10.312v1.103c0 .397-.031.788-.09 1.17Zm.091-3.211H15.07l1.285-1.285 1.802 1.082v.203Zm-10.312 0v-.203L9.646 8.09l1.285 1.285H7.844Zm3.437 0L13 8.085l1.719 1.29H11.28Zm7.538 4.2a8.458 8.458 0 0 0 .122-.567c.097-.52.153-1.05.153-1.593v-.547c.544.194.937.71.937 1.32 0 .709-.529 1.29-1.212 1.386ZM5.595 10.445c-.343-.341-.558-.795-.56-.8l-.03-.056a2.724 2.724 0 0 1-.3-2.35A2.85 2.85 0 0 1 6.384 5.5l.275-.107.02-.295c.061-.83.494-1.587 1.19-2.076.7-.493 1.586-.66 2.429-.456l.277.067.187-.216A2.954 2.954 0 0 1 13 1.407c.866 0 1.681.368 2.238 1.01l.187.216.277-.067a2.997 2.997 0 0 1 2.43.456 2.785 2.785 0 0 1 1.188 2.076l.021.295.275.107a2.85 2.85 0 0 1 1.68 1.74 2.723 2.723 0 0 1-.3 2.35l-.031.057c-.002.005-.235.494-.603.841l-.064.063a2.338 2.338 0 0 0-1.205-.66v-1.25l-2.885-1.73-1.377 1.377L13 6.913l-1.83 1.373L9.791 6.91 6.906 8.64v1.251c-.46.094-.87.323-1.19.643l-.121-.088Zm.374 1.742c0-.61.393-1.126.937-1.32v.546a8.741 8.741 0 0 0 .2 1.833c.024.11.047.219.075.327a1.403 1.403 0 0 1-1.212-1.386Zm2.52 2.317c.096.015.193.026.292.026h1.944c.677 0 1.29-.357 1.624-.937h1.303c.334.58.946.937 1.624.937h1.943c.099 0 .196-.01.292-.026A7.74 7.74 0 0 1 13 18.723a7.74 7.74 0 0 1-4.511-4.218Zm4.363 5.158.148.05.148-.05c.444-.148.87-.329 1.275-.54.033.351.143.681.318.974L13 21.837l-1.74-1.74c.173-.293.283-.623.317-.974.405.211.831.392 1.275.54Zm-7.523 3.371 2.848-1.165-.374 2.242 1.748 1.31-.905 1.358 1.816 1.815H5.97V25.78H5.03v2.813H1.298a6.487 6.487 0 0 1 4.03-5.56Zm15.64 5.56V25.78h-.938v2.813h-4.493l1.815-1.816-.905-1.357 1.748-1.31-.373-2.242 2.848 1.165a6.488 6.488 0 0 1 4.03 5.56H20.97Z" fill="#fff"/><path d="M14.875 15h-.938a.938.938 0 0 1-1.874 0h-.938c0 1.034.84 1.875 1.875 1.875 1.034 0 1.875-.84 1.875-1.875Z" fill="#fff"/></svg>