<svg width="30" height="30" fill="none" xmlns="http://www.w3.org/2000/svg"><path d="M14.134 22.2a.507.507 0 0 0-.709.109l-.062.085a.507.507 0 0 0 .817.602l.063-.086a.507.507 0 0 0-.109-.71Z" fill="#fff"/><path d="m14.267 27.026-1.305-2.372 1.218-1.659a.507.507 0 1 0-.817-.6l-1.41 1.92a.507.507 0 0 0-.036.544l1.46 2.656a.507.507 0 1 0 .89-.49ZM18.047 24.315l-1.404-1.912a.507.507 0 1 0-.818.6l1.212 1.65-1.295 2.357a.509.509 0 0 0 .444.752.508.508 0 0 0 .445-.263l1.452-2.64a.507.507 0 0 0-.036-.544ZM18.851 16.344a.507.507 0 0 0-.524.031 8.091 8.091 0 0 0-.832.654c-1.365 1.234-2.662 1.067-2.712 1.06a.504.504 0 0 0-.093-.006c-.54.014-1.512-.479-2.541-1.287a8.241 8.241 0 0 0-.48-.35.507.507 0 0 0-.79.42v1.74a.507.507 0 0 0 .233.427l3.597 2.404.002.001.01.006a.507.507 0 0 0 .565-.003l.005-.004.006-.004 3.588-2.397a.507.507 0 0 0 .237-.43v-1.813a.507.507 0 0 0-.271-.45Zm-.743 1.99L15 20.412l-3.107-2.076v-.462c.756.55 1.87 1.225 2.777 1.225h.006c.304.034 1.858.125 3.432-1.256v.493Z" fill="#fff"/><path d="M15.5 20.938a.507.507 0 0 0-.909-.217l-1.166 1.588a.507.507 0 1 0 .818.6l1.16-1.579a.507.507 0 0 0 .097-.392ZM22.727 4.586c-.01-.08-.247-1.794-1.861-2.47a1.744 1.744 0 0 0-.15-1.065C20.46.545 19.952.215 19.21.07a.506.506 0 0 0-.097-.01h-6.808a5.019 5.019 0 0 0-5.013 5.013v2.672c0 .696.237 1.374.668 1.91.213.266.476.73.516 1.433a.506.506 0 0 0 1.014-.029V7.577c.344-1.424 1.52-1.701 1.722-1.739h2.202c.259 0 .514-.04.757-.117a37.847 37.847 0 0 0 1.567-.565 1.47 1.47 0 0 1 1.008-.013l2.358.828a2.156 2.156 0 0 1 1.415 1.632v4.18a.507.507 0 0 0 1.008.074c.002-.013.205-1.321.858-2.368.227-.365.347-.78.347-1.203V4.65a.509.509 0 0 0-.004-.064Zm-1.01 3.7c0 .227-.064.451-.185.651v-1.37a.501.501 0 0 0-.003-.054 3.162 3.162 0 0 0-2.087-2.498l-2.36-.83a2.485 2.485 0 0 0-1.706.022c-.677.258-1.201.447-1.516.548-.143.046-.294.069-.447.069H11.17a.514.514 0 0 0-.066.004 3.229 3.229 0 0 0-2.618 2.58.507.507 0 0 0-.012.111v1.044a2.061 2.061 0 0 1-.169-.817V5.074a4.004 4.004 0 0 1 4-3.999h6.756c.28.06.62.182.749.431.158.305-.022.724-.022.724a.507.507 0 0 0 .34.709c1.291.31 1.555 1.55 1.589 1.75v3.597Z" fill="#fff"/><path d="M21.53 7.513a3.162 3.162 0 0 0-2.08-2.496l-.008-.002-2.36-.83a2.487 2.487 0 0 0-1.706.022c-.677.258-1.201.447-1.516.548-.143.046-.293.069-.447.069H11.17a.516.516 0 0 0-.065.004 3.229 3.229 0 0 0-2.618 2.58.508.508 0 0 0-.013.111v4.36a.71.71 0 0 0 0 .012c.004.151.111 3.728 2.582 5.364l.013.01.032.022c.141.095.283.198.421.307.72.565 2.077 1.504 3.148 1.504h.005c.059.006.162.015.303.015.607 0 1.901-.16 3.197-1.331.218-.197.462-.389.728-.572l.038-.026.037-.026c.825-.554 2.252-1.983 2.552-5.33a.489.489 0 0 0 .002-.046V7.568a.559.559 0 0 0-.003-.055Zm-1.012 4.246c-.277 3.022-1.564 4.193-2.105 4.556a3.65 3.65 0 0 0-.058.04l-.028.02a8.068 8.068 0 0 0-.832.654c-1.36 1.23-2.653 1.069-2.716 1.06a.51.51 0 0 0-.089-.006c-.54.014-1.512-.479-2.541-1.287a8.206 8.206 0 0 0-.48-.35l-.012-.009a1.36 1.36 0 0 0-.039-.027c-1.994-1.32-2.125-4.409-2.13-4.538V7.577c.346-1.43 1.53-1.703 1.722-1.739h2.203c.259 0 .514-.04.757-.117a37.742 37.742 0 0 0 1.567-.565 1.47 1.47 0 0 1 1.008-.013l2.358.828a2.156 2.156 0 0 1 1.415 1.631v4.157ZM15.454 20.795a.507.507 0 0 0-.863-.074l-1.215 1.655a.507.507 0 0 0 .817.601l1.215-1.648a.526.526 0 0 0 .046-.534ZM15.486 28.962a.507.507 0 0 0-.709-.024l-.116.106a.507.507 0 0 0-.1.622l.003.006a.507.507 0 0 0 .802.111l.112-.112a.507.507 0 0 0 .008-.71Z" fill="#fff"/><path d="m15.339 29.044-.116-.106a.507.507 0 0 0-.701.733l.112.112a.507.507 0 0 0 .804-.114l.003-.007a.508.508 0 0 0-.102-.618Z" fill="#fff"/><path d="M15.347 29.052a.507.507 0 0 0-.693-.002l-.001.002a.507.507 0 0 0-.016.734l.005.005a.506.506 0 0 0 .716 0l.006-.006a.508.508 0 0 0-.017-.733ZM15.165 20.53a.51.51 0 0 0-.514.842.506.506 0 0 0 .652.057.507.507 0 0 0 .215-.415v-.001a.507.507 0 0 0-.354-.482Z" fill="#fff"/><path d="m15.412 20.717-.004-.006a.507.507 0 0 0-.915.302v.008a.507.507 0 0 0 .791.42.507.507 0 0 0 .128-.724Z" fill="#fff"/><path d="M21.034 19.124a.506.506 0 0 0-.303-.298l-1.945-.697a.506.506 0 0 0-.453.056l-3.603 2.407-.004.002.283.42-.289-.415a.507.507 0 0 0-.129.723l2.639 3.593a.507.507 0 0 0 .853-.056l2.921-5.311a.506.506 0 0 0 .03-.424Zm-3.457 4.55-1.854-2.525 2.961-1.98 1.145.411-2.252 4.094Z" fill="#fff"/><path d="M15.5 20.934a.507.507 0 0 0-.217-.334l-3.616-2.416a.508.508 0 0 0-.453-.055l-1.945.697a.507.507 0 0 0-.273.722l2.921 5.311a.508.508 0 0 0 .854.056l1.41-1.92a.191.191 0 0 0 .003-.005l1.225-1.668a.507.507 0 0 0 .09-.388Zm-2.137 1.46-.004.005-.936 1.275-2.252-4.094 1.145-.41 2.961 1.979-.914 1.245ZM29.975 27.782l-.654-3.95a3.498 3.498 0 0 0-2.259-2.715l-6.33-2.29a.507.507 0 0 0-.626.703l1.321 2.65-1.297.02a.507.507 0 0 0-.441.743l.532 1.015-5.444 4.98a.604.604 0 0 0-.016.016l-.112.112a.507.507 0 0 0-.087.602l.004.007c.09.163.26.264.445.264h13.135a1.85 1.85 0 0 0 1.829-2.157Zm-1.189.846a.838.838 0 0 1-.64.297H16.295l4.899-4.482a.507.507 0 0 0 .107-.61l-.331-.631 1.279-.02a.507.507 0 0 0 .446-.733l-1.116-2.237 5.138 1.858a2.482 2.482 0 0 1 1.603 1.927l.654 3.951a.838.838 0 0 1-.188.68Z" fill="#fff"/><path d="m15.352 29.056-.006-.006a.507.507 0 0 0-.7.019l-.006.005a.507.507 0 0 0 .36.865h.011a.507.507 0 0 0 .34-.883Z" fill="#fff"/><path d="M15.335 29.041a.507.507 0 0 0-.784.133l-.003.007a.507.507 0 0 0 .08.596l.002.002a.506.506 0 0 0 .706.022l.006-.005a.513.513 0 0 0-.006-.755Z" fill="#fff"/><path d="m15.358 29.072-.003-.002-.004-.004-.112-.112a.395.395 0 0 0-.016-.016l-5.444-4.98.532-1.015a.507.507 0 0 0-.441-.743l-1.297-.02 1.321-2.65a.507.507 0 0 0-.626-.704l-6.33 2.29a3.497 3.497 0 0 0-2.259 2.715l-.654 3.952a1.85 1.85 0 0 0 1.829 2.156H15a.507.507 0 0 0 .358-.867Zm-13.504-.147a.838.838 0 0 1-.828-.977l.654-3.95a2.482 2.482 0 0 1 1.603-1.928l5.138-1.858-1.116 2.236a.507.507 0 0 0 .447.734l1.278.02-.33.631a.507.507 0 0 0 .106.61l4.9 4.482H1.854Z" fill="#fff"/><path d="M16.727 22.826a.507.507 0 0 0-.084-.424l-1.234-1.68a.506.506 0 0 0-.834.027l-1.211 1.644a.51.51 0 0 0-.009.592l.516.74-.55 3.466a.508.508 0 0 0 .057.324l1.178 2.14a.507.507 0 0 0 .889 0L16.63 27.5a.516.516 0 0 0 .056-.324l-.547-3.45.51-.732a.516.516 0 0 0 .077-.167ZM15 28.359l-.65-1.18.555-3.496a.507.507 0 0 0-.085-.37l-.425-.61.607-.822.609.83-.42.603a.507.507 0 0 0-.085.37l.552 3.478L15 28.36Z" fill="#fff"/></svg>