<svg width="24" height="30" fill="none" xmlns="http://www.w3.org/2000/svg"><path d="M23.36 6.074 12.085.066a.56.56 0 0 0-.534.003L.588 6.077a.561.561 0 0 0-.292.493v7.848a16.25 16.25 0 0 0 9.74 14.872l1.522.663a.56.56 0 0 0 .447 0l1.714-.74a16.218 16.218 0 0 0 9.938-14.95V6.57a.562.562 0 0 0-.297-.496Zm-.825 8.188a15.098 15.098 0 0 1-9.255 13.919l-.004.002-1.493.644-1.298-.566A15.126 15.126 0 0 1 1.42 14.418V6.902L11.824 1.2l10.71 5.707v7.356Z" fill="#fff"/><path d="M7.683 14.054a.561.561 0 0 0-.854.729l2.965 3.472a.561.561 0 0 0 .781.071l6.906-5.618a.561.561 0 1 0-.709-.871l-6.48 5.272-2.609-3.055Z" fill="#fff"/></svg>