<svg width="30" height="30" fill="none" xmlns="http://www.w3.org/2000/svg"><g clip-path="url(#a)" fill="#fff"><path d="M19.355 20.73v-3.31h.968v-.968h-5.807v.967h.968v3.311c-.33.144-.629.332-.912.54l-2.96-5.425v-2.297h.969v-.967h-.968v-1.452a.484.484 0 0 0-.484-.484h-.484V9.194a.484.484 0 0 0-.484-.484H7.258a.484.484 0 0 0-.484.484v1.451H6.29a.484.484 0 0 0-.484.484v1.452H4.84v.967h.967v2.296L.296 25.948A2.428 2.428 0 0 0 0 27.107v.474A2.422 2.422 0 0 0 2.42 30H15c.343 0 .68-.076.99-.216a4.844 4.844 0 0 0 6.268-4.623 4.847 4.847 0 0 0-2.903-4.43Zm-.968-3.31v.967h-1.935v-.968h1.935Zm-2.258 4.096a.484.484 0 0 0 .323-.456v-1.705h1.935v1.704c0 .206.13.388.322.457a3.873 3.873 0 0 1 2.448 2.682 1.44 1.44 0 0 0-.976.42l-.4.402a.488.488 0 0 1-.343.141h-.166a.487.487 0 0 1-.342-.141l-.401-.401a1.441 1.441 0 0 0-1.026-.425h-.167a1.44 1.44 0 0 0-1.026.425l-.4.4a.488.488 0 0 1-.343.142h-.166a.487.487 0 0 1-.342-.141l-.401-.401a1.44 1.44 0 0 0-.976-.42 3.872 3.872 0 0 1 2.447-2.683ZM7.742 9.677h1.935v.968H7.742v-.968Zm-.968 1.936h3.871v.968h-3.87v-.968ZM6.715 16.2a.485.485 0 0 0 .06-.232v-2.42h3.87v2.42c0 .08.02.16.06.232l1.724 3.162c-.361.017-.7.16-.958.418l-.4.4a.488.488 0 0 1-.343.143h-.166a.487.487 0 0 1-.342-.142l-.4-.4a1.44 1.44 0 0 0-1.027-.426h-.166a1.44 1.44 0 0 0-1.027.425l-.4.4a.488.488 0 0 1-.343.143h-.166a.487.487 0 0 1-.342-.142l-.4-.4a1.437 1.437 0 0 0-.959-.42L6.715 16.2ZM2.42 29.032c-.8 0-1.451-.651-1.451-1.451v-.474c0-.242.061-.483.177-.696l3.321-6.088h.456c.127 0 .252.051.342.141l.4.401a1.44 1.44 0 0 0 1.027.425h.166a1.44 1.44 0 0 0 1.027-.425l.4-.4a.488.488 0 0 1 .343-.142h.166c.127 0 .252.051.342.141l.4.401a1.44 1.44 0 0 0 1.027.425h.166c.388 0 .753-.15 1.027-.425l.4-.4a.488.488 0 0 1 .343-.142h.455l.876 1.605a4.833 4.833 0 0 0-1.248 3.233 4.83 4.83 0 0 0 1.948 3.871H2.419Zm15 0a3.875 3.875 0 0 1-3.87-3.87h.083c.127 0 .252.051.342.141l.4.4a1.44 1.44 0 0 0 1.027.426h.166c.388 0 .753-.15 1.026-.425l.401-.4a.488.488 0 0 1 .342-.143h.167c.127 0 .252.052.342.142l.4.4c.274.275.639.426 1.027.426h.166a1.44 1.44 0 0 0 1.026-.425l.401-.4a.488.488 0 0 1 .342-.143h.083a3.875 3.875 0 0 1-3.87 3.871Z"/><path d="M3.387 25.161c-.8 0-1.451.652-1.451 1.452 0 .8.65 1.451 1.451 1.451.8 0 1.452-.65 1.452-1.451 0-.8-.652-1.452-1.452-1.452Zm0 1.936a.484.484 0 1 1 .001-.97.484.484 0 0 1 0 .97ZM7.258 24.194c-.8 0-1.452.651-1.452 1.451s.652 1.452 1.452 1.452c.8 0 1.452-.652 1.452-1.452 0-.8-.652-1.451-1.452-1.451Zm0 1.935a.485.485 0 1 1 .001-.969.485.485 0 0 1-.001.97ZM10.645 22.258c-.8 0-1.451.651-1.451 1.452 0 .8.651 1.451 1.451 1.451s1.452-.651 1.452-1.451-.652-1.452-1.452-1.452Zm0 1.936a.484.484 0 1 1 .001-.97.484.484 0 0 1 0 .97ZM11.13 27.097h.967v.967h-.968v-.967ZM10.161 26.129h.968v.968h-.968v-.968ZM9.194 27.097h.967v.967h-.967v-.967ZM5.323 22.742h.967v.968h-.967v-.968ZM29.516 6.774h-6.774a.484.484 0 0 0-.484.484v1.936c0 .266.216.483.484.483h.484v17.42A2.906 2.906 0 0 0 26.129 30a2.906 2.906 0 0 0 2.903-2.903V9.677h.484A.484.484 0 0 0 30 9.194V7.258a.484.484 0 0 0-.484-.484ZM26.13 29.032a1.937 1.937 0 0 1-1.936-1.935V16.452h3.871v10.645a1.937 1.937 0 0 1-1.935 1.935Zm1.935-13.548h-3.87V9.677h3.87v5.807Zm.968-6.774h-5.806v-.968h5.806v.968Z"/><path d="M25.161 26.613h.968v.968h-.968v-.968ZM26.13 24.677h.967v.968h-.968v-.968ZM25.161 22.742h.968v.968h-.968v-.968ZM26.13 20.806h.967v.968h-.968v-.968ZM25.161 18.871h.968v.968h-.968v-.968ZM7.742 5.323c0-.267.217-.484.484-.484h1.451v2.903h.968V4.839h4.839v10.645h.968V4.839h1.451c.267 0 .484.217.484.484v10.16h.968V5.324c0-.8-.652-1.452-1.452-1.452h-1.451v-.484c0-.266.216-.484.483-.484h5.807c.267 0 .484.218.484.484v2.42h.968v-2.42c0-.8-.652-1.452-1.452-1.452h-5.806c-.8 0-1.452.652-1.452 1.452v.484h-4.839v-2.42c0-.266.217-.483.484-.483h16.452c.267 0 .483.217.483.484v4.354h.968V1.452c0-.8-.651-1.452-1.451-1.452H11.129c-.8 0-1.452.651-1.452 1.452V3.87H8.226c-.8 0-1.452.651-1.452 1.452v2.419h.968v-2.42ZM2.903 7.258c0 .8.652 1.452 1.452 1.452.8 0 1.452-.652 1.452-1.452 0-.8-.652-1.452-1.452-1.452-.8 0-1.452.652-1.452 1.452Zm1.936 0a.484.484 0 1 1-.97-.001.484.484 0 0 1 .97.001ZM2.42 4.839a2.422 2.422 0 0 0 2.419-2.42A2.422 2.422 0 0 0 2.419 0 2.422 2.422 0 0 0 0 2.42a2.422 2.422 0 0 0 2.42 2.419Zm0-3.871c.8 0 1.451.651 1.451 1.451S3.22 3.871 2.419 3.871c-.8 0-1.451-.651-1.451-1.452 0-.8.651-1.451 1.451-1.451ZM1.935 13.548a1.937 1.937 0 0 0 1.936-1.935 1.937 1.937 0 0 0-1.936-1.936A1.937 1.937 0 0 0 0 11.613c0 1.067.868 1.935 1.935 1.935Zm0-2.903a.969.969 0 0 1 0 1.936.969.969 0 0 1 0-1.936Z"/></g><defs><clipPath id="a"><path fill="#fff" d="M0 0h30v30H0z"/></clipPath></defs></svg>