<svg width="18" height="12" viewBox="0 0 18 12" fill="none" xmlns="http://www.w3.org/2000/svg">
<path d="M17.6414 0.180054H0.358558C0.160558 0.180054 0 0.340577 0 0.538612V9.98607C0 10.9973 0.822655 11.82 1.83392 11.82H16.1661C17.1773 11.82 18 10.9973 18 9.98607V0.538612C18 0.340577 17.8394 0.180054 17.6414 0.180054ZM17.2828 9.98604C17.2828 10.6018 16.7819 11.1028 16.1661 11.1028H1.83392C1.21813 11.1028 0.717151 10.6018 0.717151 9.98604V1.32091L8.77284 7.91565C8.83893 7.96972 8.91944 7.99676 8.99998 7.99676C9.08039 7.99676 9.16079 7.9698 9.22681 7.9159L15.4602 2.82426C15.6136 2.69896 15.6363 2.47312 15.5111 2.31973C15.3858 2.16635 15.1599 2.14356 15.0066 2.2689L9.00023 7.17502L1.33168 0.89717H17.2828V9.98604V9.98604Z" fill="currentColor"/>
<path d="M16.5207 1.49504C16.3954 1.34166 16.1695 1.31888 16.0162 1.44417L15.9086 1.53203C15.7552 1.65732 15.7325 1.88317 15.8577 2.03655C15.9286 2.12332 16.0317 2.16829 16.1356 2.16829C16.2154 2.16829 16.2956 2.14178 16.3622 2.08743L16.4698 1.99957C16.6232 1.87431 16.6459 1.64843 16.5207 1.49504Z" fill="currentColor"/>
</svg>
