<svg width="18" height="18" viewBox="0 0 18 18" fill="none" xmlns="http://www.w3.org/2000/svg">
<path d="M14.3333 6.70433V4.83333C14.3333 2.16833 11.9406 0 8.99996 0C6.05929 0 3.66663 2.16833 3.66663 4.83333V6.70433C2.53296 6.89967 1.66663 7.88767 1.66663 9.07667V15.5907C1.66663 16.919 2.74763 18 4.07629 18H13.9236C15.2523 18 16.3333 16.919 16.3333 15.5903V9.07633C16.3333 7.88767 15.467 6.89967 14.3333 6.70433ZM4.33329 4.83333C4.33329 2.53567 6.42663 0.666667 8.99996 0.666667C11.5733 0.666667 13.6666 2.53567 13.6666 4.83333V6.66667H4.33329V4.83333ZM15.6666 15.5903C15.6666 16.5513 14.8846 17.3333 13.9236 17.3333H4.07629C3.11529 17.3333 2.33329 16.5513 2.33329 15.5903V9.07633C2.33329 8.11533 3.11529 7.33333 4.07629 7.33333H13.9236C14.8846 7.33333 15.6666 8.11533 15.6666 9.07633V15.5903Z" fill="currentColor"/>
<path d="M8.99996 9.33337C8.26463 9.33337 7.66663 9.93137 7.66663 10.6667V12.6667C7.66663 13.402 8.26463 14 8.99996 14C9.73529 14 10.3333 13.402 10.3333 12.6667V10.6667C10.3333 9.93137 9.73529 9.33337 8.99996 9.33337ZM9.66663 12.6667C9.66663 13.0344 9.36763 13.3334 8.99996 13.3334C8.63229 13.3334 8.33329 13.0344 8.33329 12.6667V10.6667C8.33329 10.299 8.63229 10 8.99996 10C9.36763 10 9.66663 10.299 9.66663 10.6667V12.6667Z" fill="currentColor"/>
</svg>
