<svg width="18" height="18" viewBox="0 0 18 18" fill="none" xmlns="http://www.w3.org/2000/svg">
<path d="M9.00002 7.79998C10.158 7.79998 11.1 6.85768 11.1 5.69998C11.1 4.54228 10.158 3.59998 9.00002 3.59998C7.84202 3.59998 6.90002 4.54228 6.90002 5.69998C6.90002 6.85768 7.84202 7.79998 9.00002 7.79998ZM9.00002 4.19998C9.82712 4.19998 10.5 4.87288 10.5 5.69998C10.5 6.52708 9.82712 7.19998 9.00002 7.19998C8.17292 7.19998 7.50002 6.52708 7.50002 5.69998C7.50002 4.87288 8.17292 4.19998 9.00002 4.19998Z" fill="currentColor"/>
<path d="M8.94684 16.4271L13.5491 9.78C15.2753 7.4787 15.0257 3.696 13.0148 1.6854C11.9282 0.5985 10.4834 0 8.94684 0C7.41024 0 5.96544 0.5985 4.87884 1.6851C2.86794 3.6957 2.61834 7.4784 4.33764 9.7707L8.94684 16.4271ZM5.30304 2.1093C6.27654 1.1361 7.57044 0.6 8.94684 0.6C10.3232 0.6 11.6171 1.1361 12.5906 2.1093C14.4056 3.924 14.6291 7.3404 13.0625 9.429L8.94684 15.3729L4.82454 9.42C3.26454 7.3404 3.48834 3.924 5.30304 2.1093Z" fill="currentColor"/>
<path d="M12.6351 12.9021C12.4701 12.882 12.3213 13.0002 12.3021 13.1649C12.2829 13.3296 12.4005 13.4787 12.5649 13.4979C15.7197 13.8693 17.4 14.8701 17.4 15.45C17.4 16.2642 14.2044 17.4 9 17.4C3.7956 17.4 0.6 16.2642 0.6 15.45C0.6 14.8701 2.2803 13.8693 5.4351 13.4979C5.5995 13.4787 5.7171 13.3293 5.6979 13.1649C5.6784 13.0002 5.5296 12.8814 5.3649 12.9021C2.2062 13.2741 0 14.3217 0 15.45C0 16.7172 3.0915 18 9 18C14.9085 18 18 16.7172 18 15.45C18 14.3217 15.7938 13.2741 12.6351 12.9021Z" fill="currentColor"/>
</svg>
