<svg width="17" height="17" viewBox="0 0 17 17" fill="none" xmlns="http://www.w3.org/2000/svg">
<g clip-path="url(#clip0_1_284)">
<path d="M16.5539 13.1146L13.113 10.8199C12.6764 10.5311 12.0911 10.6261 11.7683 11.0383L10.766 12.327C10.6372 12.4969 10.403 12.5461 10.2167 12.4426L10.026 12.3375C9.39398 11.993 8.60759 11.5641 7.02314 9.97913C5.43868 8.39411 5.00893 7.60712 4.66444 6.97625L4.5599 6.78559C4.45496 6.59929 4.50329 6.36414 4.6732 6.2343L5.96103 5.23232C6.37308 4.90946 6.46826 4.32431 6.17973 3.88752L3.88508 0.446663C3.58938 0.00187385 2.99613 -0.131649 2.53836 0.143531L1.09951 1.00785C0.647421 1.27363 0.315737 1.70408 0.174014 2.20899C-0.34411 4.09684 0.0456698 7.35498 4.8452 12.1551C8.66313 15.9727 11.5054 16.9994 13.459 16.9994C13.9086 17.0013 14.3564 16.9428 14.7905 16.8254C15.2955 16.6839 15.726 16.3522 15.9916 15.8999L16.8568 14.4619C17.1324 14.0041 16.9989 13.4105 16.5539 13.1146ZM16.3686 14.1713L15.5054 15.6101C15.3147 15.9365 15.0051 16.1765 14.6414 16.2798C12.8986 16.7583 9.85378 16.362 5.24604 11.7542C0.638291 7.14649 0.242004 4.10195 0.72049 2.35888C0.823935 1.99476 1.06422 1.68472 1.39103 1.4937L2.82987 0.630515C3.0285 0.511001 3.28598 0.568932 3.41429 0.761947L4.66078 2.63336L5.70699 4.20251C5.83228 4.39197 5.79112 4.6459 5.61238 4.7861L4.32425 5.78809C3.93225 6.08783 3.82031 6.63019 4.06166 7.06064L4.16394 7.24648C4.526 7.91052 4.97613 8.73659 6.61951 10.3797C8.26289 12.0228 9.08869 12.4729 9.75243 12.835L9.93853 12.9375C10.3689 13.1788 10.9113 13.0669 11.2111 12.6749L12.2131 11.3868C12.3533 11.2082 12.6071 11.167 12.7967 11.2922L16.2372 13.5868C16.4304 13.7151 16.4883 13.9727 16.3686 14.1713Z" fill="currentColor"/>
<path d="M9.63277 2.83475C12.2913 2.8377 14.4457 4.99217 14.4487 7.65071C14.4487 7.80718 14.5755 7.93399 14.732 7.93399C14.8885 7.93399 15.0153 7.80718 15.0153 7.65071C15.012 4.67937 12.6041 2.27144 9.63277 2.26819C9.47631 2.26819 9.34949 2.39501 9.34949 2.55147C9.34949 2.70793 9.47631 2.83475 9.63277 2.83475Z" fill="currentColor"/>
<path d="M9.63277 4.53458C11.353 4.5366 12.747 5.9306 12.749 7.65079C12.749 7.80726 12.8758 7.93407 13.0323 7.93407C13.1887 7.93407 13.3155 7.80726 13.3155 7.65079C13.3132 5.6178 11.6657 3.97034 9.63277 3.96802C9.47631 3.96802 9.34949 4.09483 9.34949 4.2513C9.34949 4.40776 9.47631 4.53458 9.63277 4.53458Z" fill="currentColor"/>
<path d="M9.63277 6.23428C10.4147 6.23521 11.0483 6.86884 11.0492 7.65075C11.0492 7.80722 11.1761 7.93403 11.3325 7.93403C11.4889 7.93403 11.6158 7.80722 11.6158 7.65075C11.6145 6.55608 10.7274 5.66895 9.63277 5.66772C9.47631 5.66772 9.34949 5.79454 9.34949 5.951C9.34949 6.10747 9.47631 6.23428 9.63277 6.23428Z" fill="currentColor"/>
</g>
<defs>
<clipPath id="clip0_1_284">
<rect width="17" height="17" fill="white"/>
</clipPath>
</defs>
</svg>
