<svg width="15" height="15" viewBox="0 0 15 15" fill="none" xmlns="http://www.w3.org/2000/svg">
<path d="M9.9197 9.45253L9.59395 9.80517L9.93306 10.145L14.2208 14.4415C14.2284 14.4502 14.232 14.4605 14.232 14.471C14.232 14.482 14.2283 14.4864 14.2267 14.4881L14.219 14.4958L14.2161 14.4989C14.2153 14.4992 14.2143 14.4994 14.2132 14.4997C14.2123 14.4999 14.2115 14.4999 14.2111 14.5C14.2109 14.4999 14.2106 14.4998 14.2101 14.4996C14.2086 14.499 14.203 14.4964 14.1948 14.4881L9.85753 10.1509L9.55134 9.84466L9.20455 10.104C8.31118 10.772 7.21022 11.1657 6.01132 11.1657C3.068 11.1657 0.678467 8.76835 0.678467 5.83285C0.678467 2.89734 3.068 0.5 6.01132 0.5C8.95463 0.5 11.3442 2.89734 11.3442 5.83285C11.3442 7.2307 10.7983 8.50137 9.9197 9.45253ZM6.01132 0.555719C3.09528 0.555719 0.734186 2.92679 0.734186 5.83285C0.734186 8.7389 3.09528 11.11 6.01132 11.11C8.92676 11.11 11.2884 8.74829 11.2884 5.83285C11.2884 2.91681 8.91737 0.555719 6.01132 0.555719Z" stroke="currentColor"/>
</svg>
